<svg width="247" height="36" viewBox="0 0 247 36" fill="none" xmlns="http://www.w3.org/2000/svg">
<g clip-path="url(#clip0_17_12)">
<path fill-rule="evenodd" clip-rule="evenodd" d="M17.6826 25.6669C18.9017 24.6538 20.1358 23.5306 21.3571 22.3094C22.5783 21.0882 23.7015 19.854 24.7146 18.6349C23.7015 17.4158 22.5783 16.1816 21.3571 14.9604C20.1358 13.7392 18.9017 12.616 17.6826 11.6029C16.4634 12.616 15.2293 13.7392 14.008 14.9604C12.7868 16.1816 11.6637 17.4158 10.6505 18.6349C11.6637 19.854 12.7868 21.0882 14.008 22.3094C15.2293 23.5306 16.4634 24.6538 17.6826 25.6669ZM20.1032 27.5508C21.2335 26.5878 22.3647 25.5444 23.4784 24.4307C24.5921 23.317 25.6355 22.1858 26.5984 21.0555C27.7951 22.7056 28.7634 24.2902 29.4712 25.7341C30.2534 27.3298 30.6791 28.6763 30.7876 29.703C30.8978 30.746 30.6645 31.2142 30.4632 31.4155C30.2618 31.6169 29.7937 31.8502 28.7506 31.7399C27.7239 31.6314 26.3775 31.2057 24.7818 30.4236C23.3379 29.7158 21.7532 28.7474 20.1032 27.5508ZM17.6826 29.4922C19.6888 31.0017 21.6502 32.2295 23.4613 33.1173C25.2273 33.983 26.9282 34.564 28.4353 34.7233C29.9261 34.8809 31.4783 34.6431 32.5845 33.5368C33.6907 32.4306 33.9285 30.8785 33.771 29.3877C33.6117 27.8805 33.0307 26.1797 32.165 24.4137C31.2772 22.6025 30.0493 20.6411 28.5398 18.6349C30.0493 16.6287 31.2771 14.6673 32.165 12.8562C33.0307 11.0901 33.6117 9.38927 33.7709 7.88214C33.9285 6.39136 33.6907 4.83921 32.5845 3.73297C31.4783 2.62673 29.9261 2.38895 28.4353 2.54651C26.9282 2.70579 25.2273 3.2868 23.4613 4.15249C21.6501 5.04031 19.6888 6.26814 17.6826 7.77761C15.6763 6.26814 13.715 5.04031 11.9038 4.15249C10.1378 3.2868 8.43693 2.70579 6.9298 2.54651C5.43901 2.38895 3.88686 2.62673 2.78062 3.73297C1.67438 4.83921 1.4366 6.39136 1.59416 7.88214C1.75345 9.38928 2.33445 11.0901 3.20014 12.8562C4.08796 14.6673 5.3158 16.6287 6.82526 18.6349C5.3158 20.6411 4.08796 22.6025 3.20014 24.4137C2.33445 26.1797 1.75344 27.8805 1.59416 29.3877C1.4366 30.8785 1.67438 32.4306 2.78062 33.5368C3.88685 34.6431 5.439 34.8809 6.92979 34.7233C8.43692 34.564 10.1378 33.983 11.9038 33.1173C13.715 32.2295 15.6763 31.0017 17.6826 29.4922ZM15.2619 27.5508C14.1316 26.5878 13.0004 25.5444 11.8867 24.4307C10.773 23.317 9.72962 22.1858 8.76669 21.0555C7.57003 22.7056 6.6017 24.2902 5.8939 25.7341C5.11171 27.3298 4.68605 28.6763 4.57754 29.703C4.4673 30.746 4.70059 31.2142 4.90194 31.4155C5.10328 31.6169 5.57144 31.8502 6.61448 31.7399C7.64118 31.6314 8.98766 31.2057 10.5833 30.4236C12.0272 29.7158 13.6119 28.7474 15.2619 27.5508ZM8.76669 16.2143C9.72962 15.084 10.773 13.9528 11.8867 12.8391C13.0004 11.7254 14.1316 10.682 15.2619 9.71904C13.6119 8.52238 12.0273 7.55405 10.5833 6.84625C8.98767 6.06406 7.64118 5.6384 6.61449 5.52989C5.57144 5.41965 5.10329 5.65294 4.90194 5.85429C4.7006 6.05563 4.46731 6.52378 4.57754 7.56683C4.68606 8.59353 5.11172 9.94001 5.89391 11.5357C6.60171 12.9796 7.57003 14.5642 8.76669 16.2143ZM20.1032 9.71903C21.2335 10.682 22.3647 11.7254 23.4784 12.8391C24.5921 13.9528 25.6355 15.084 26.5984 16.2143C27.7951 14.5642 28.7634 12.9796 29.4712 11.5357C30.2534 9.94001 30.6791 8.59353 30.7876 7.56683C30.8978 6.52378 30.6645 6.05563 30.4632 5.85429C30.2618 5.65294 29.7937 5.41965 28.7506 5.52989C27.7239 5.6384 26.3774 6.06406 24.7818 6.84625C23.3379 7.55405 21.7532 8.52238 20.1032 9.71903Z" fill="white"/>
<path d="M66.7792 15.5768H62.8041C62.6907 14.9249 62.4817 14.3474 62.177 13.8443C61.8723 13.3341 61.4932 12.9019 61.0397 12.5476C60.5862 12.1933 60.0689 11.9276 59.4879 11.7504C58.9139 11.5662 58.2939 11.4741 57.6279 11.4741C56.4445 11.4741 55.3958 11.7717 54.4818 12.3669C53.5677 12.955 52.852 13.8195 52.3348 14.9603C51.8175 16.0941 51.5589 17.4793 51.5589 19.1162C51.5589 20.7813 51.8175 22.1843 52.3348 23.3252C52.8591 24.4589 53.5748 25.3163 54.4818 25.8973C55.3958 26.4713 56.441 26.7582 57.6172 26.7582C58.2691 26.7582 58.8785 26.6732 59.4454 26.5031C60.0193 26.326 60.5331 26.0674 60.9866 25.7272C61.4471 25.3871 61.8333 24.9691 62.1451 24.4731C62.4639 23.977 62.6836 23.4102 62.8041 22.7725L66.7792 22.7937C66.6304 23.8282 66.308 24.799 65.812 25.706C65.3231 26.613 64.6818 27.4137 63.8882 28.1081C63.0946 28.7954 62.1663 29.3339 61.1035 29.7237C60.0406 30.1063 58.8608 30.2976 57.5641 30.2976C55.6509 30.2976 53.9432 29.8547 52.441 28.969C50.9388 28.0833 49.7555 26.8043 48.891 25.132C48.0266 23.4598 47.5943 21.4545 47.5943 19.1162C47.5943 16.7708 48.0301 14.7655 48.9017 13.1003C49.7732 11.428 50.9601 10.149 52.4623 9.26332C53.9645 8.37759 55.6651 7.93472 57.5641 7.93472C58.7758 7.93472 59.9024 8.10478 60.944 8.4449C61.9857 8.78502 62.9139 9.28457 63.7288 9.94356C64.5436 10.5955 65.2133 11.3962 65.7376 12.3457C66.269 13.2881 66.6162 14.3651 66.7792 15.5768Z" fill="white"/>
<path d="M70.2203 30V13.6742H73.951V16.3952H74.121C74.4186 15.4528 74.9288 14.7265 75.6516 14.2163C76.3814 13.699 77.214 13.4404 78.1493 13.4404C78.3619 13.4404 78.5993 13.451 78.8614 13.4723C79.1307 13.4865 79.3539 13.5113 79.5311 13.5467V17.0861C79.3681 17.0294 79.1095 16.9798 78.7552 16.9373C78.408 16.8877 78.0714 16.8629 77.7454 16.8629C77.0439 16.8629 76.4133 17.0152 75.8535 17.3199C75.3008 17.6175 74.865 18.032 74.5462 18.5635C74.2273 19.0949 74.0679 19.7078 74.0679 20.4022V30H70.2203Z" fill="white"/>
<path d="M84.9756 36.1222C84.4513 36.1222 83.9659 36.0796 83.5195 35.9946C83.0802 35.9167 82.7294 35.8246 82.4673 35.7183L83.3601 32.721C83.9198 32.8839 84.4194 32.9619 84.8587 32.9548C85.298 32.9477 85.6842 32.8095 86.0173 32.5403C86.3574 32.2781 86.6444 31.8388 86.8782 31.2223L87.2077 30.3401L81.2875 13.6742H85.3689L89.1315 26.0036H89.3015L93.0747 13.6742H97.1668L90.6301 31.977C90.3254 32.8414 89.9216 33.5819 89.4185 34.1984C88.9154 34.8219 88.2989 35.2967 87.5691 35.6226C86.8463 35.9556 85.9818 36.1222 84.9756 36.1222Z" fill="white"/>
<path d="M112.733 17.9895L109.225 18.3722C109.126 18.0179 108.952 17.6848 108.704 17.3731C108.463 17.0613 108.137 16.8097 107.726 16.6184C107.315 16.4271 106.812 16.3314 106.217 16.3314C105.416 16.3314 104.743 16.505 104.198 16.8522C103.659 17.1994 103.393 17.6494 103.401 18.2021C103.393 18.6768 103.567 19.063 103.921 19.3606C104.283 19.6582 104.878 19.9027 105.707 20.094L108.492 20.6892C110.036 21.0223 111.184 21.5502 111.935 22.2729C112.694 22.9957 113.076 23.9416 113.083 25.1108C113.076 26.1382 112.775 27.0452 112.18 27.8317C111.592 28.6112 110.773 29.2206 109.725 29.6599C108.676 30.0992 107.471 30.3189 106.111 30.3189C104.113 30.3189 102.504 29.9008 101.285 29.0647C100.067 28.2215 99.3404 27.0488 99.1066 25.5466L102.859 25.1852C103.029 25.9221 103.39 26.4783 103.943 26.8539C104.495 27.2294 105.215 27.4172 106.1 27.4172C107.014 27.4172 107.748 27.2294 108.3 26.8539C108.86 26.4783 109.14 26.0142 109.14 25.4615C109.14 24.9939 108.959 24.6077 108.598 24.303C108.244 23.9983 107.691 23.7645 106.94 23.6015L104.155 23.0169C102.589 22.691 101.431 22.1418 100.68 21.3695C99.9285 20.59 99.5565 19.6051 99.5636 18.4147C99.5565 17.4085 99.8293 16.5369 100.382 15.8C100.942 15.056 101.718 14.482 102.71 14.0781C103.709 13.6672 104.86 13.4617 106.164 13.4617C108.077 13.4617 109.583 13.8691 110.681 14.684C111.787 15.4988 112.47 16.6007 112.733 17.9895Z" fill="white"/>
<path d="M124.408 13.6742V16.6503H115.023V13.6742H124.408ZM117.34 9.76287H121.188V25.0895C121.188 25.6068 121.266 26.0036 121.422 26.2799C121.585 26.5492 121.797 26.7334 122.059 26.8326C122.322 26.9318 122.612 26.9814 122.931 26.9814C123.172 26.9814 123.391 26.9637 123.59 26.9283C123.795 26.8929 123.951 26.861 124.058 26.8326L124.706 29.8406C124.5 29.9114 124.206 29.9894 123.824 30.0744C123.448 30.1594 122.988 30.209 122.442 30.2232C121.478 30.2516 120.61 30.1063 119.838 29.7874C119.066 29.4615 118.453 28.9584 117.999 28.2781C117.553 27.5979 117.333 26.7476 117.34 25.7272V9.76287Z" fill="white"/>
<path d="M132.324 30.3295C131.29 30.3295 130.358 30.1453 129.529 29.7768C128.707 29.4013 128.055 28.8486 127.573 28.1187C127.098 27.3889 126.861 26.489 126.861 25.419C126.861 24.4979 127.031 23.7361 127.371 23.1338C127.711 22.5315 128.175 22.0497 128.763 21.6883C129.352 21.3269 130.014 21.0541 130.751 20.8699C131.495 20.6786 132.264 20.5404 133.057 20.4554C134.014 20.3562 134.79 20.2676 135.385 20.1897C135.98 20.1046 136.413 19.9771 136.682 19.807C136.958 19.6299 137.096 19.3571 137.096 18.9886V18.9249C137.096 18.1242 136.859 17.5041 136.384 17.0648C135.909 16.6255 135.226 16.4058 134.333 16.4058C133.39 16.4058 132.643 16.6113 132.09 17.0223C131.545 17.4333 131.176 17.9187 130.985 18.4784L127.392 17.9683C127.676 16.9762 128.143 16.1472 128.795 15.4811C129.447 14.808 130.244 14.3049 131.187 13.9719C132.129 13.6317 133.171 13.4617 134.312 13.4617C135.098 13.4617 135.881 13.5538 136.661 13.738C137.44 13.9223 138.152 14.2269 138.797 14.6521C139.442 15.0702 139.959 15.6406 140.349 16.3633C140.746 17.0861 140.944 17.9895 140.944 19.0737V30H137.245V27.7573H137.118C136.884 28.2108 136.554 28.636 136.129 29.0328C135.711 29.4225 135.183 29.7378 134.545 29.9787C133.915 30.2126 133.174 30.3295 132.324 30.3295ZM133.323 27.5022C134.096 27.5022 134.765 27.3499 135.332 27.0452C135.899 26.7334 136.335 26.3225 136.639 25.8123C136.951 25.3021 137.107 24.7459 137.107 24.1436V22.2198C136.987 22.319 136.781 22.4111 136.491 22.4961C136.207 22.5811 135.888 22.6555 135.534 22.7193C135.18 22.7831 134.829 22.8398 134.482 22.8894C134.134 22.939 133.833 22.9815 133.578 23.0169C133.004 23.0949 132.491 23.2224 132.037 23.3996C131.584 23.5767 131.226 23.8247 130.964 24.1436C130.701 24.4553 130.57 24.8592 130.57 25.3552C130.57 26.0638 130.829 26.5988 131.346 26.9602C131.863 27.3216 132.522 27.5022 133.323 27.5022Z" fill="white"/>
<path d="M148.66 8.23233V30H144.813V8.23233H148.66Z" fill="white"/>
<path d="M160.211 30V8.23233H174.156V11.5379H164.154V17.4475H173.2V20.753H164.154V30H160.211Z" fill="white"/>
<path d="M183.501 30.3189C181.907 30.3189 180.525 29.9681 179.356 29.2666C178.187 28.5651 177.28 27.5837 176.635 26.3225C175.998 25.0612 175.679 23.5873 175.679 21.9009C175.679 20.2145 175.998 18.7371 176.635 17.4687C177.28 16.2003 178.187 15.2154 179.356 14.5139C180.525 13.8124 181.907 13.4617 183.501 13.4617C185.096 13.4617 186.478 13.8124 187.647 14.5139C188.816 15.2154 189.719 16.2003 190.357 17.4687C191.002 18.7371 191.324 20.2145 191.324 21.9009C191.324 23.5873 191.002 25.0612 190.357 26.3225C189.719 27.5837 188.816 28.5651 187.647 29.2666C186.478 29.9681 185.096 30.3189 183.501 30.3189ZM183.523 27.2365C184.387 27.2365 185.11 26.9992 185.691 26.5244C186.272 26.0426 186.704 25.3978 186.988 24.59C187.278 23.7822 187.423 22.8823 187.423 21.8903C187.423 20.8912 187.278 19.9877 186.988 19.1799C186.704 18.3651 186.272 17.7167 185.691 17.2349C185.11 16.753 184.387 16.5121 183.523 16.5121C182.637 16.5121 181.9 16.753 181.312 17.2349C180.731 17.7167 180.295 18.3651 180.005 19.1799C179.721 19.9877 179.579 20.8912 179.579 21.8903C179.579 22.8823 179.721 23.7822 180.005 24.59C180.295 25.3978 180.731 26.0426 181.312 26.5244C181.9 26.9992 182.637 27.2365 183.523 27.2365Z" fill="white"/>
<path d="M194.59 30V13.6742H198.321V16.3952H198.491C198.788 15.4528 199.298 14.7265 200.021 14.2163C200.751 13.699 201.584 13.4404 202.519 13.4404C202.732 13.4404 202.969 13.451 203.231 13.4723C203.5 13.4865 203.724 13.5113 203.901 13.5467V17.0861C203.738 17.0294 203.479 16.9798 203.125 16.9373C202.778 16.8877 202.441 16.8629 202.115 16.8629C201.414 16.8629 200.783 17.0152 200.223 17.3199C199.67 17.6175 199.235 18.032 198.916 18.5635C198.597 19.0949 198.438 19.7078 198.438 20.4022V30H194.59Z" fill="white"/>
<path d="M206.457 30V13.6742H210.134V16.4484H210.326C210.666 15.513 211.229 14.7832 212.016 14.2588C212.802 13.7274 213.741 13.4617 214.832 13.4617C215.938 13.4617 216.87 13.7309 217.628 14.2695C218.393 14.8009 218.932 15.5272 219.243 16.4484H219.413C219.775 15.5414 220.384 14.8186 221.242 14.2801C222.106 13.7345 223.13 13.4617 224.313 13.4617C225.815 13.4617 227.041 13.9364 227.991 14.8859C228.94 15.8354 229.415 17.2207 229.415 19.0418V30H225.557V19.637C225.557 18.6237 225.288 17.8832 224.749 17.4156C224.21 16.9408 223.551 16.7034 222.772 16.7034C221.844 16.7034 221.118 16.994 220.593 17.575C220.076 18.149 219.817 18.8965 219.817 19.8177V30H216.044V19.4775C216.044 18.6343 215.789 17.9612 215.279 17.4581C214.776 16.955 214.117 16.7034 213.302 16.7034C212.749 16.7034 212.246 16.8452 211.793 17.1286C211.339 17.4049 210.978 17.7982 210.708 18.3084C210.439 18.8115 210.305 19.3996 210.305 20.0728V30H206.457Z" fill="white"/>
<path d="M246.222 17.9895L242.714 18.3722C242.615 18.0179 242.441 17.6848 242.193 17.3731C241.953 17.0613 241.627 16.8097 241.216 16.6184C240.805 16.4271 240.302 16.3314 239.706 16.3314C238.906 16.3314 238.232 16.505 237.687 16.8522C237.148 17.1994 236.883 17.6494 236.89 18.2021C236.883 18.6768 237.056 19.063 237.41 19.3606C237.772 19.6582 238.367 19.9027 239.196 20.094L241.981 20.6892C243.526 21.0223 244.673 21.5502 245.425 22.2729C246.183 22.9957 246.565 23.9416 246.572 25.1108C246.565 26.1382 246.264 27.0452 245.669 27.8317C245.081 28.6112 244.262 29.2206 243.214 29.6599C242.165 30.0992 240.961 30.3189 239.6 30.3189C237.602 30.3189 235.993 29.9008 234.775 29.0647C233.556 28.2215 232.83 27.0488 232.596 25.5466L236.348 25.1852C236.518 25.9221 236.879 26.4783 237.432 26.8539C237.984 27.2294 238.704 27.4172 239.589 27.4172C240.503 27.4172 241.237 27.2294 241.79 26.8539C242.349 26.4783 242.629 26.0142 242.629 25.4615C242.629 24.9939 242.449 24.6077 242.087 24.303C241.733 23.9983 241.18 23.7645 240.429 23.6015L237.644 23.0169C236.078 22.691 234.92 22.1418 234.169 21.3695C233.418 20.59 233.046 19.6051 233.053 18.4147C233.046 17.4085 233.318 16.5369 233.871 15.8C234.431 15.056 235.207 14.482 236.199 14.0781C237.198 13.6672 238.349 13.4617 239.653 13.4617C241.566 13.4617 243.072 13.8691 244.17 14.684C245.276 15.4988 245.96 16.6007 246.222 17.9895Z" fill="white"/>
</g>
<defs>
<clipPath id="clip0_17_12">
<rect width="247" height="36" fill="white"/>
</clipPath>
</defs>
</svg>
