<svg width="100" height="22" viewBox="0 0 100 22" fill="none" xmlns="http://www.w3.org/2000/svg">
<g clip-path="url(#clip0_4318_1344)">
<path d="M0 5.24905V15.7471L9.10117 21.0103L18.1882 15.7471V5.24905L9.10117 0L0 5.24905Z" fill="#37FC15"/>
<path d="M4.36015 15.2388C1.74974 12.6284 1.74974 8.36705 4.36015 5.75664C6.97057 3.14622 11.2319 3.14622 13.8423 5.75664C15.1122 7.02657 15.8036 8.7057 15.8036 10.4977C15.8036 10.4977 15.7754 11.7818 15.719 11.7818C15.6061 11.7818 10.6675 11.7818 10.6675 11.7818L8.08528 9.21367H13.0239C12.8264 8.60693 12.4877 8.04251 12.0221 7.57687C10.4135 5.96829 7.78897 5.96829 6.18039 7.57687C4.57181 9.18545 4.57181 11.81 6.18039 13.4186C7.78897 15.0271 10.4135 15.0271 12.0221 13.4186L13.8423 15.2388C11.2178 17.8633 6.97057 17.8633 4.36015 15.2388Z" fill="black"/>
<path d="M15.8041 10.498C15.8041 11.1189 15.7618 11.7398 15.7195 11.7821C15.7054 11.7962 10.668 11.7821 10.668 11.7821" fill="black"/>
<path d="M34.9655 16.2267H25.2012V4.7832H34.8103L34.4717 7.30895H28.122V9.10097H33.3711V11.6549H28.122V13.6868H34.6269L34.9655 16.2267Z" fill="white"/>
<path d="M59.2917 16.2267H49.5273V4.7832H59.1365L58.7978 7.30895H52.4482V9.10097H57.6972V11.6549H52.4482V13.6868H58.9531L59.2917 16.2267Z" fill="white"/>
<path d="M46.592 13.6163V16.2267H37.7871V4.7832H40.7079V13.6304H46.592V13.6163Z" fill="white"/>
<path d="M70.8482 5.54516C71.7795 6.05313 72.485 6.74454 72.9647 7.61938C73.4445 8.49422 73.6844 9.45373 73.6844 10.4979C73.6844 11.5421 73.4445 12.5016 72.9647 13.3764C72.485 14.2512 71.7795 14.9426 70.8482 15.4506C69.9169 15.9586 68.8163 16.2267 67.5323 16.2267H62.2832V4.7832H67.5323C68.8163 4.7832 69.9169 5.03719 70.8482 5.54516ZM69.8181 12.7555C70.3543 12.1629 70.6224 11.4151 70.6224 10.4979C70.6224 9.58072 70.3543 8.83287 69.8181 8.24024C69.2819 7.6476 68.5059 7.35129 67.4899 7.35129H65.204V13.6445H67.4899C68.5059 13.6445 69.2819 13.3482 69.8181 12.7555Z" fill="white"/>
<path d="M83.4635 13.8985H78.6518L77.7911 16.2267H74.7715L79.2586 4.7832H82.8849L87.3861 16.2267H84.3383L83.4635 13.8985ZM82.5604 11.4433L81.0506 7.43595L79.5549 11.4433H82.5604Z" fill="white"/>
<path d="M99.224 7.39457C98.716 6.4774 97.9964 5.77188 97.0934 5.26391C96.1762 4.75594 95.1461 4.50195 93.9891 4.50195C92.832 4.50195 91.802 4.75594 90.8848 5.26391C89.9676 5.77188 89.2621 6.49151 88.7541 7.39457C88.2462 8.31175 87.9922 9.3418 87.9922 10.4988C87.9922 11.6559 88.2462 12.7001 88.7541 13.6031C89.2621 14.5203 89.9818 15.2258 90.8848 15.7338C91.802 16.2418 92.832 16.4957 93.9891 16.4957C95.1461 16.4957 96.1762 16.2418 97.0934 15.7338C98.0105 15.2258 98.716 14.5203 99.224 13.6031C99.732 12.686 99.986 11.6559 99.986 10.4988C99.986 9.3418 99.7461 8.31175 99.224 7.39457ZM96.7406 12.1356C96.4725 12.6154 96.1056 12.9823 95.6259 13.2504C95.1461 13.5185 94.6099 13.6455 94.0032 13.6455C93.3965 13.6455 92.8603 13.5185 92.3805 13.2504C91.9008 12.9823 91.5339 12.6154 91.2658 12.1356C90.9977 11.6559 90.8566 11.1197 90.8566 10.513C90.8566 9.90621 90.9977 9.35591 91.2658 8.89027C91.5339 8.41052 91.9008 8.04365 92.3805 7.77555C92.8603 7.50746 93.3965 7.38046 94.0032 7.38046C94.6099 7.38046 95.1461 7.50746 95.6259 7.77555C96.1056 8.04365 96.4725 8.41052 96.7406 8.89027C97.0087 9.37002 97.1498 9.90621 97.1498 10.513C97.1498 11.1197 97.0087 11.6559 96.7406 12.1356Z" fill="white"/>
</g>
<defs>
<clipPath id="clip0_4318_1344">
<rect width="100" height="21.0103" fill="white"/>
</clipPath>
</defs>
</svg>
